<?xml version="1.0" encoding="UTF-8" standalone="no" ?>
<!DOCTYPE svg PUBLIC "-//W3C//DTD SVG 1.1//EN" "http://www.w3.org/Graphics/SVG/1.1/DTD/svg11.dtd">
<svg xmlns="http://www.w3.org/2000/svg" xmlns:xlink="http://www.w3.org/1999/xlink" version="1.1" width="1280" height="720" viewBox="-16.67 30 1280 720" xml:space="preserve">
<desc>Created with Fabric.js 5.2.4</desc>
<defs>
</defs>
<rect x="0" y="0" width="100%" height="100%" fill="transparent"></rect>
<g transform="matrix(1 0 0 1 640 360)" id="bfa54b70-fa55-4daa-bb11-66e4196e61ce"  >
<rect style="stroke: none; stroke-width: 1; stroke-dasharray: none; stroke-linecap: butt; stroke-dashoffset: 0; stroke-linejoin: miter; stroke-miterlimit: 4; fill: rgb(255,255,255); fill-rule: nonzero; opacity: 1; visibility: hidden;" vector-effect="non-scaling-stroke"  x="-640" y="-360" rx="0" ry="0" width="1280" height="720" />
</g>
<g transform="matrix(Infinity NaN NaN Infinity 0 0)" id="2a4b98f2-1b8f-46ad-8130-3bd315571e3f"  >
</g>
<g transform="matrix(0.71 0 0 0.71 640.76 389.82)" style="filter: url(#SVGID_66);" id="2be08e92-dc7b-4d4f-8308-bf998588dc6c"  >
<filter id="SVGID_66" y="-32%" height="164%" x="-26%" width="152%" >
	<feGaussianBlur in="SourceAlpha" stdDeviation="25"></feGaussianBlur>
	<feOffset dx="50" dy="50" result="oBlur" ></feOffset>
	<feFlood flood-color="rgb(0,0,0)" flood-opacity="1"/>
	<feComposite in2="oBlur" operator="in" />
	<feMerge>
		<feMergeNode></feMergeNode>
		<feMergeNode in="SourceGraphic"></feMergeNode>
	</feMerge>
</filter>
		<text xml:space="preserve" font-family="Raleway" font-size="185" font-style="normal" font-weight="900" style="stroke: none; stroke-width: 1; stroke-dasharray: none; stroke-linecap: butt; stroke-dashoffset: 0; stroke-linejoin: miter; stroke-miterlimit: 4; fill: rgb(251,255,0); fill-rule: nonzero; opacity: 1; white-space: pre;" ><tspan x="-527.53" y="-255.46" >B</tspan><tspan x="-402.65" y="-255.46" >E</tspan><tspan x="-294.98" y="-255.46" style="white-space: pre; "> </tspan><tspan x="-256.13" y="-255.46" >A</tspan><tspan x="-135.51" y="-255.46" >R</tspan><tspan x="-15.08" y="-255.46" >O</tspan><tspan x="123.67" y="-255.46" >U</tspan><tspan x="258.35" y="-255.46" >N</tspan><tspan x="395.07" y="-255.46" >D</tspan><tspan x="-618.18" y="-46.41" >P</tspan><tspan x="-505.7" y="-46.41" >E</tspan><tspan x="-400.06" y="-46.41" >O</tspan><tspan x="-261.31" y="-46.41" >P</tspan><tspan x="-148.83" y="-46.41" >L</tspan><tspan x="-43.38" y="-46.41" >E</tspan><tspan x="64.29" y="-46.41" >,</tspan><tspan x="109.06" y="-46.41" style="white-space: pre; "> </tspan><tspan x="147.91" y="-46.41" >W</tspan><tspan x="340.68" y="-46.41" >H</tspan><tspan x="476.65" y="-46.41" >O</tspan><tspan x="-451.68" y="162.64" >G</tspan><tspan x="-317.74" y="162.64" >E</tspan><tspan x="-210.07" y="162.64" >T</tspan><tspan x="-97.4" y="162.64" style="white-space: pre; "> </tspan><tspan x="-58.55" y="162.64" >Y</tspan><tspan x="53.37" y="162.64" >O</tspan><tspan x="192.12" y="162.64" >U</tspan><tspan x="326.8" y="162.64" >R</tspan><tspan x="-405.15" y="371.69" >E</tspan><tspan x="-297.48" y="371.69" >S</tspan><tspan x="-186.11" y="371.69" >S</tspan><tspan x="-74.74" y="371.69" >E</tspan><tspan x="32.93" y="371.69" >N</tspan><tspan x="169.64" y="371.69" >C</tspan><tspan x="294.7" y="371.69" >E</tspan></text>
</g>
</svg>