<svg xmlns="http://www.w3.org/2000/svg" xml:space="preserve" fill-rule="evenodd" stroke-linejoin="round" stroke-miterlimit="2" clip-rule="evenodd" viewBox="0 0 24 24">
  <path fill="#fff" d="M15.1 2.1a9 9 0 0 1 2.8 2c.8 1 1.2 2 1.2 2.9H4.8c0-1 .4-2 1.2-2.9.8-.9 1.7-1.5 2.7-2L7.6.2V0h.1v.1l1.3 2a8.7 8.7 0 0 1 3-.6 7.8 7.8 0 0 1 2.9.5L16 .1h.2v.1l-1.2 2ZM8.3 5.3c.3 0 .4-.1.6-.3l.2-.5c0-.2 0-.4-.2-.5a.8.8 0 0 0-.6-.2c-.2 0-.3 0-.5.2l-.2.5c0 .2 0 .4.2.5.2.2.3.3.5.3Zm7.2 0 .6-.2.2-.5c0-.2 0-.4-.2-.6a.7.7 0 0 0-.6-.2c-.2 0-.4 0-.5.2-.2.2-.2.4-.2.6 0 .2 0 .3.2.5l.5.2ZM4.8 18c0 .2 0 .4.3.6.2.2.4.4.7.4h2v3.4c0 .4.2.8.5 1.1.3.3.6.4 1 .4s.8-.1 1.1-.4c.4-.3.5-.7.5-1.1V19h2v3.4c0 .4.2.8.5 1.1.4.3.7.4 1.2.4.4 0 .7-.1 1-.4.3-.3.4-.7.4-1.1V19h2c.3 0 .6-.2.8-.4.2-.2.3-.5.3-.7V8H4.8v10ZM2.3 8c-.4 0-.8.2-1.1.5-.4.3-.5.6-.5 1v5.9c0 .4.1.8.5 1 .3.4.7.6 1 .6.5 0 .8-.2 1.1-.5.3-.3.4-.7.4-1.1V9.6c0-.5-.1-.8-.4-1.1-.3-.3-.6-.5-1-.5Zm19.4 0c-.3 0-.7.2-1 .5-.4.3-.6.6-.6 1v5.9c0 .4.2.8.6 1 .3.4.7.6 1 .6.5 0 .8-.2 1.1-.5.3-.3.4-.7.4-1.1V9.6c0-.5-.1-.8-.4-1.1-.3-.3-.6-.5-1-.5Z"/>
</svg>
