<svg xmlns="http://www.w3.org/2000/svg" xml:space="preserve" fill-rule="evenodd" stroke-linejoin="round" stroke-miterlimit="2" clip-rule="evenodd" viewBox="0 0 24 24">
  <path fill="#fff" d="M16.9 5.8h.4l2 .4c1 .3 2 1 2.7 2l-1.5 1.2c-.9.7-1.3 1.8-1.3 3.3 0 1.9.6 3.1 1.7 3.8l1.8 1.1-.5 1A9 9 0 0 1 21 21l-1.7 2c-.7.6-1.4 1-2.3 1-1 0-1.6-.2-2-.5a4 4 0 0 0-2.3-.5c-1 0-1.8.1-2.3.4-.5.4-1.1.5-2 .6A3 3 0 0 1 6 23a15.5 15.5 0 0 1-4.3-7.9A8 8 0 0 1 2.5 9a6.3 6.3 0 0 1 5.4-3 5 5 0 0 1 2.4.4c.8.4 1.4.6 2 .6.4 0 1.1-.2 2-.6a6 6 0 0 1 3-.5h-.4Zm.4-5.8c0 .7 0 1.4-.3 2a5.6 5.6 0 0 1-2.8 3c-.7.4-1.5.6-2.2.5 0-.7 0-1.3.3-2s.7-1.2 1.1-1.7c.5-.5 1-1 1.8-1.2.7-.4 1.4-.6 2-.6Z"/>
</svg>
